# xmcd
#
# Track frame offsets:
#	150
#	15832
#	31915
#	51093
#	66930
#	79605
#	96546
#	114147
#	132136
#	149110
#	166419
#	182436
#	200709
#	219653
#
# Disc length: 3195 seconds
#
# Revision: 0
# Processed by: cddbd v1.5.2PL0 Copyright (c) Steve Scherf et al.
# Submitted via: EasyCDDAExtractor 16.0.6.1
#
DISCID=c10c790e
DTITLE=VICTOR and LEO - VICTOR and LEO DUETOS
DYEAR=2016
DGENRE=Country
TTITLE0=VICTOR and LEO Participação Especial: Eric Silver - TIME FOR LOVE (TEMPO
TTITLE0=DE AMOR) com ERIC SILVER
TTITLE1=VICTOR and LEO Participação Especial: Bruno and Marrone - EU VIM PRA TE BU
TTITLE1=SCAR com BRUNO and MARRONE
TTITLE2=VICTOR and LEO Participação Especial: Zezé Di Camargo and Luciano - QUANDO
TTITLE2=VOCÊ SOME com ZEZÉ DI CAMARGO and LUCIANO
TTITLE3=CHITÃOZINHO and XORORÓ Participação Especial: Victor and Leo - ELA NÃO VAI
TTITLE3=MAIS CHORAR (SHE'S NOT CRYIN' ANYMORE) com CHITÃOZINHO and XORORÓ
TTITLE4=VICTOR and LEO Participação Especial: Almir Sater - TUDO BEM com ALMIR S
TTITLE4=ATER
TTITLE5=RENATO TEIXEIRA E SÉRGIO REIS Participação Especial: Victor and Leo - VI
TTITLE5=DA BOA com RENATO TEIXEIRA E SÉRGIO REIS
TTITLE6=VICTOR and LEO Participação Especial: Milionário and José Rico - ESTRADA V
TTITLE6=ERMELHA com MILIONÁRIO and JOSÉ RICO
TTITLE7=JADS and JADSON Participação Especial: Victor and Leo - COLO com JADS and JA
TTITLE7=DSON
TTITLE8=VICTOR and LEO Participação Especial: Henrique and Juliano - 10 MINUTOS LO
TTITLE8=NGE DE VOCÊ com HENRIQUE and JULIANO
TTITLE9=VICTOR and LEO Participação Especial: Wesley Safadão - ESCURIDÃO ILUMINA
TTITLE9=DA com WESLEY SAFADÃO
TTITLE10=PAULA FERNANDES Participação Especial: Victor and Leo - NÃO PRECISA com
TTITLE10=PAULA FERNANDES
TTITLE11=VICTOR and LEO Participação Especial: Alcione  - DEUS E EU NO SERTÃO co
TTITLE11=m ALCIONE
TTITLE12=GONZAGUINHA Participação Especial: Victor and Leo - ESPERE POR MIM, MOR
TTITLE12=ENA com GONZAGUINHA
TTITLE13=VICTOR and LEO Participação Especial: Nando Reis  - ALTAS HORAS com NAN
TTITLE13=DO REIS
EXTD=
EXTT0=
EXTT1=
EXTT2=
EXTT3=
EXTT4=
EXTT5=
EXTT6=
EXTT7=
EXTT8=
EXTT9=
EXTT10=
EXTT11=
EXTT12=
EXTT13=
PLAYORDER=
